<svg width="28" height="28" viewBox="0 0 28 28" fill="none" xmlns="http://www.w3.org/2000/svg">
<path d="M20.8332 9.33337C22.7201 9.33337 24.2498 7.76637 24.2498 5.83337C24.2498 3.90038 22.7201 2.33337 20.8332 2.33337C18.9462 2.33337 17.4165 3.90038 17.4165 5.83337C17.4165 7.76637 18.9462 9.33337 20.8332 9.33337Z" stroke="#FAFAFA" stroke-width="2" stroke-linecap="round" stroke-linejoin="round"/>
<path d="M7.16667 17.5C9.05364 17.5 10.5833 15.933 10.5833 14C10.5833 12.067 9.05364 10.5 7.16667 10.5C5.27969 10.5 3.75 12.067 3.75 14C3.75 15.933 5.27969 17.5 7.16667 17.5Z" stroke="#FAFAFA" stroke-width="2" stroke-linecap="round" stroke-linejoin="round"/>
<path d="M20.8332 25.6666C22.7201 25.6666 24.2498 24.0996 24.2498 22.1666C24.2498 20.2336 22.7201 18.6666 20.8332 18.6666C18.9462 18.6666 17.4165 20.2336 17.4165 22.1666C17.4165 24.0996 18.9462 25.6666 20.8332 25.6666Z" stroke="#FAFAFA" stroke-width="2" stroke-linecap="round" stroke-linejoin="round"/>
<path d="M10.1162 15.7617L17.8948 20.4051" stroke="#FAFAFA" stroke-width="2" stroke-linecap="round" stroke-linejoin="round"/>
<path d="M17.8834 7.59497L10.1162 12.2383" stroke="#FAFAFA" stroke-width="2" stroke-linecap="round" stroke-linejoin="round"/>
</svg>
