<svg width="29" height="28" viewBox="0 0 29 28" fill="none" xmlns="http://www.w3.org/2000/svg">
<path d="M7.33317 16.3334H21.3332V14H7.33317V16.3334ZM7.33317 12.8334H21.3332V10.5H7.33317V12.8334ZM7.33317 9.33337H21.3332V7.00004H7.33317V9.33337ZM25.9998 25.6667L21.3332 21H4.99984C4.35817 21 3.80887 20.7716 3.35192 20.3146C2.89498 19.8577 2.6665 19.3084 2.6665 18.6667V4.66671C2.6665 4.02504 2.89498 3.47574 3.35192 3.01879C3.80887 2.56185 4.35817 2.33337 4.99984 2.33337H23.6665C24.3082 2.33337 24.8575 2.56185 25.3144 3.01879C25.7714 3.47574 25.9998 4.02504 25.9998 4.66671V25.6667ZM4.99984 18.6667H22.3248L23.6665 19.9792V4.66671H4.99984V18.6667Z" fill="#E0E0E0"/>
</svg>
