<svg width="28" height="28" viewBox="0 0 28 28" fill="none" xmlns="http://www.w3.org/2000/svg">
<path d="M25.0331 14.0359L14.5331 2.36925C14.0909 1.87692 13.2416 1.87692 12.7994 2.36925L2.2994 14.0359C2.14853 14.2036 2.04949 14.4114 2.01429 14.6342C1.97909 14.857 2.00923 15.0852 2.10107 15.2913C2.28773 15.7124 2.7054 15.9831 3.16623 15.9831H5.49957V24.1498C5.49957 24.4592 5.62248 24.7559 5.84127 24.9747C6.06007 25.1935 6.35681 25.3164 6.66623 25.3164H10.1662C10.4757 25.3164 10.7724 25.1935 10.9912 24.9747C11.21 24.7559 11.3329 24.4592 11.3329 24.1498V19.4831H15.9996V24.1498C15.9996 24.4592 16.1225 24.7559 16.3413 24.9747C16.5601 25.1935 16.8568 25.3164 17.1662 25.3164H20.6662C20.9757 25.3164 21.2724 25.1935 21.4912 24.9747C21.71 24.7559 21.8329 24.4592 21.8329 24.1498V15.9831H24.1662C24.3922 15.984 24.6135 15.9192 24.8033 15.7966C24.993 15.6739 25.143 15.4987 25.2349 15.2923C25.3268 15.0859 25.3566 14.8572 25.3208 14.6341C25.285 14.411 25.185 14.2032 25.0331 14.0359Z" fill="#FAFAFA"/>
</svg>
