<svg width="29" height="28" viewBox="0 0 29 28" fill="none" xmlns="http://www.w3.org/2000/svg">
<path d="M14.6668 3.5C13.2744 4.89239 12.4921 6.78087 12.4921 8.75C12.4921 10.7191 13.2744 12.6076 14.6668 14C16.0591 15.3924 17.9476 16.1746 19.9168 16.1746C21.8859 16.1746 23.7744 15.3924 25.1668 14C25.1668 16.0767 24.5509 18.1068 23.3972 19.8335C22.2434 21.5602 20.6036 22.906 18.6849 23.7007C16.7663 24.4955 14.6551 24.7034 12.6183 24.2982C10.5815 23.8931 8.71058 22.8931 7.24213 21.4246C5.77368 19.9562 4.77365 18.0852 4.36851 16.0484C3.96336 14.0116 4.1713 11.9004 4.96602 9.98182C5.76074 8.0632 7.10655 6.42332 8.83327 5.26957C10.56 4.11581 12.59 3.5 14.6668 3.5Z" fill="#3851CD" stroke="#3851CD" stroke-width="2.33333" stroke-linecap="round" stroke-linejoin="round"/>
<path d="M24 3.5V8.16667" stroke="#FFD76B" stroke-width="2.33333" stroke-linecap="round" stroke-linejoin="round"/>
<path d="M26.3334 5.83337H21.6667" stroke="#FFD76B" stroke-width="2.33333" stroke-linecap="round" stroke-linejoin="round"/>
</svg>
