<svg width="28" height="28" viewBox="0 0 28 28" fill="none" xmlns="http://www.w3.org/2000/svg">
<path d="M13.1256 2.67754C13.1755 2.57424 13.2526 2.48729 13.3482 2.4265C13.4438 2.36571 13.5541 2.3335 13.6666 2.3335C13.7791 2.3335 13.8894 2.36571 13.9849 2.4265C14.0805 2.48729 14.1576 2.57424 14.2075 2.67754L16.8384 8.13637C17.0117 8.49567 17.2675 8.80651 17.5839 9.04223C17.9003 9.27795 18.2678 9.4315 18.6549 9.4897L24.5384 10.3717C24.6499 10.3883 24.7546 10.4364 24.8408 10.5108C24.9269 10.5851 24.991 10.6827 25.0259 10.7924C25.0607 10.9021 25.0649 11.0197 25.0379 11.1317C25.0109 11.2437 24.9539 11.3458 24.8732 11.4264L20.6184 15.6707C20.3377 15.9508 20.1278 16.2966 20.0066 16.6783C19.8854 17.0599 19.8565 17.4661 19.9225 17.8617L20.927 23.8584C20.9467 23.9725 20.9346 24.09 20.8923 24.1975C20.8499 24.305 20.7789 24.3981 20.6873 24.4662C20.5958 24.5343 20.4874 24.5747 20.3745 24.5827C20.2616 24.5908 20.1488 24.5662 20.0489 24.5117L14.7895 21.679C14.443 21.4926 14.0574 21.3952 13.666 21.3952C13.2746 21.3952 12.889 21.4926 12.5425 21.679L7.28424 24.5117C7.1844 24.5659 7.07172 24.5902 6.95903 24.582C6.84634 24.5738 6.73816 24.5334 6.6468 24.4653C6.55543 24.3972 6.48455 24.3043 6.44221 24.197C6.39987 24.0897 6.38777 23.9724 6.4073 23.8584L7.41066 17.8629C7.47694 17.4671 7.44822 17.0607 7.32699 16.6788C7.20576 16.2968 6.99566 15.9509 6.7148 15.6707L2.45991 11.4275C2.37858 11.3471 2.32095 11.2448 2.29359 11.1325C2.26622 11.0201 2.27021 10.9021 2.30511 10.7919C2.34001 10.6818 2.40441 10.5839 2.49097 10.5094C2.57754 10.4349 2.68279 10.3868 2.79474 10.3705L8.6771 9.4897C9.06462 9.43195 9.43263 9.27861 9.74946 9.04286C10.0663 8.80711 10.3225 8.49602 10.4959 8.13637L13.1256 2.67754Z" fill="#FAFAFA" stroke="#FAFAFA" stroke-width="2" stroke-linecap="round" stroke-linejoin="round"/>
</svg>
