<svg width="28" height="28" viewBox="0 0 28 28" fill="none" xmlns="http://www.w3.org/2000/svg">
<path d="M4.33295 3.55596C4.22802 3.50474 4.11009 3.48632 3.99454 3.50311C3.87899 3.51989 3.77118 3.57111 3.68516 3.65007C3.59915 3.72903 3.53892 3.83208 3.51233 3.94578C3.48575 4.05947 3.49403 4.17854 3.53611 4.28746L6.85295 13.1856C7.04857 13.7109 7.04857 14.289 6.85295 14.8143L3.53728 23.7125C3.49541 23.8212 3.48723 23.9401 3.51381 24.0536C3.54038 24.1671 3.60048 24.27 3.68629 24.3489C3.7721 24.4278 3.87965 24.479 3.99498 24.496C4.1103 24.5129 4.22806 24.4948 4.33295 24.444L25.3329 14.5273C25.4328 14.4801 25.5173 14.4054 25.5764 14.312C25.6355 14.2187 25.6669 14.1105 25.6669 14C25.6669 13.8895 25.6355 13.7812 25.5764 13.6879C25.5173 13.5945 25.4328 13.5199 25.3329 13.4726L4.33295 3.55596Z" stroke="#FAFAFA" stroke-width="2" stroke-linecap="round" stroke-linejoin="round"/>
<path d="M7 14H25.6667" stroke="#FAFAFA" stroke-width="2" stroke-linecap="round" stroke-linejoin="round"/>
</svg>
