<svg width="28" height="28" viewBox="0 0 28 28" fill="none" xmlns="http://www.w3.org/2000/svg">
<path d="M11.6667 23.3333L10.2083 20.4166L7 21" stroke="#FAFAFA" stroke-width="2.33333" stroke-linecap="round" stroke-linejoin="round"/>
<path d="M11.6667 4.66663L10.2083 7.58329L7 6.99996" stroke="#FAFAFA" stroke-width="2.33333" stroke-linecap="round" stroke-linejoin="round"/>
<path d="M16.3333 23.3333L17.7916 20.4166L20.9999 21" stroke="#FAFAFA" stroke-width="2.33333" stroke-linecap="round" stroke-linejoin="round"/>
<path d="M16.3333 4.66663L17.7916 7.58329L20.9999 6.99996" stroke="#FAFAFA" stroke-width="2.33333" stroke-linecap="round" stroke-linejoin="round"/>
<path d="M19.8334 24.5L16.3334 17.5H11.6667" stroke="#FAFAFA" stroke-width="2.33333" stroke-linecap="round" stroke-linejoin="round"/>
<path d="M19.8333 3.5L16.3333 10.5L18.0833 14" stroke="#FAFAFA" stroke-width="2.33333" stroke-linecap="round" stroke-linejoin="round"/>
<path d="M2.33325 14H9.91659L11.6666 10.5" stroke="#FAFAFA" stroke-width="2.33333" stroke-linecap="round" stroke-linejoin="round"/>
<path d="M23.3333 11.6666L21.5833 14L23.3333 16.3333" stroke="#FAFAFA" stroke-width="2.33333" stroke-linecap="round" stroke-linejoin="round"/>
<path d="M25.6666 14H18.0833L16.3333 17.5" stroke="#FAFAFA" stroke-width="2.33333" stroke-linecap="round" stroke-linejoin="round"/>
<path d="M4.66675 11.6666L6.41675 14L4.66675 16.3333" stroke="#FAFAFA" stroke-width="2.33333" stroke-linecap="round" stroke-linejoin="round"/>
<path d="M8.16675 24.5L11.6667 17.5L9.91675 14" stroke="#FAFAFA" stroke-width="2.33333" stroke-linecap="round" stroke-linejoin="round"/>
<path d="M8.16675 3.5L11.6667 10.5H16.3334" stroke="#FAFAFA" stroke-width="2.33333" stroke-linecap="round" stroke-linejoin="round"/>
</svg>
