<svg width="28" height="28" viewBox="0 0 28 28" fill="none" xmlns="http://www.w3.org/2000/svg">
<path d="M22.3223 24.5L15.1473 17.15C14.5779 17.6167 13.923 17.9861 13.1827 18.2583C12.4424 18.5306 11.6547 18.6667 10.8195 18.6667C8.75054 18.6667 6.9995 17.9326 5.5664 16.4646C4.1333 14.9965 3.41675 13.2028 3.41675 11.0833C3.41675 8.96389 4.1333 7.17014 5.5664 5.70208C6.9995 4.23403 8.75054 3.5 10.8195 3.5C12.8885 3.5 14.6395 4.23403 16.0727 5.70208C17.5058 7.17014 18.2223 8.96389 18.2223 11.0833C18.2223 11.9389 18.0894 12.7458 17.8237 13.5042C17.558 14.2625 17.1973 14.9333 16.7417 15.5167L23.9167 22.8667L22.3223 24.5ZM10.8195 16.3333C12.2431 16.3333 13.4532 15.8229 14.4497 14.8021C15.4463 13.7812 15.9445 12.5417 15.9445 11.0833C15.9445 9.625 15.4463 8.38542 14.4497 7.36458C13.4532 6.34375 12.2431 5.83333 10.8195 5.83333C9.39591 5.83333 8.18585 6.34375 7.18932 7.36458C6.19279 8.38542 5.69453 9.625 5.69453 11.0833C5.69453 12.5417 6.19279 13.7812 7.18932 14.8021C8.18585 15.8229 9.39591 16.3333 10.8195 16.3333Z" fill="#FAFAFA"/>
</svg>
