<svg width="28" height="28" viewBox="0 0 28 28" fill="none" xmlns="http://www.w3.org/2000/svg">
<path d="M8.16675 11.6666V25.6666" stroke="#E0E0E0" stroke-width="2.33333" stroke-linecap="round" stroke-linejoin="round"/>
<path d="M17.4999 6.86004L16.3333 11.6667H23.1349C23.4972 11.6667 23.8544 11.751 24.1784 11.913C24.5024 12.075 24.7842 12.3102 25.0016 12.6C25.2189 12.8898 25.3658 13.2262 25.4306 13.5826C25.4954 13.939 25.4763 14.3056 25.3749 14.6534L22.6566 23.9867C22.5152 24.4714 22.2205 24.8971 21.8166 25.2C21.4127 25.503 20.9214 25.6667 20.4166 25.6667H4.66659C4.04775 25.6667 3.45425 25.4209 3.01667 24.9833C2.57908 24.5457 2.33325 23.9522 2.33325 23.3334V14C2.33325 13.3812 2.57908 12.7877 3.01667 12.3501C3.45425 11.9125 4.04775 11.6667 4.66659 11.6667H7.88659C8.32068 11.6665 8.74611 11.5452 9.11503 11.3164C9.48396 11.0876 9.78174 10.7605 9.97492 10.3717L13.9999 2.33337C14.5501 2.34019 15.0916 2.47124 15.584 2.71674C16.0764 2.96223 16.507 3.31583 16.8436 3.75111C17.1801 4.18639 17.414 4.69209 17.5276 5.23044C17.6413 5.76879 17.6318 6.32586 17.4999 6.86004Z" stroke="#E0E0E0" stroke-width="2.33333" stroke-linecap="round" stroke-linejoin="round"/>
</svg>
